<?xml version="1.0" encoding="iso-8859-1"?>
<!-- Uploaded to: SVG Repo, www.svgrepo.com, Generator: SVG Repo Mixer Tools -->
<svg height="1000px" width="1000px" version="1.1" id="Layer_1" xmlns="http://www.w3.org/2000/svg" xmlns:xlink="http://www.w3.org/1999/xlink" 
	 viewBox="0 0 511.997 511.997" xml:space="preserve">
<path style="fill:#ffffff;" d="M403.707,448.56H256c-17.517,0-31.718,14.201-31.718,31.718s14.201,31.718,31.718,31.718h224.281
	c1.045,0,2.089-0.055,3.13-0.159c0.472-0.047,0.928-0.135,1.393-0.201c0.56-0.08,1.116-0.146,1.673-0.256
	c0.531-0.106,1.047-0.252,1.567-0.383c0.484-0.121,0.966-0.226,1.446-0.37c0.508-0.154,1-0.345,1.499-0.524
	c0.48-0.171,0.958-0.328,1.429-0.522c0.467-0.192,0.916-0.421,1.37-0.634c0.484-0.226,0.968-0.442,1.444-0.696
	c0.438-0.235,0.852-0.501,1.277-0.755c0.463-0.277,0.93-0.537,1.381-0.839c0.476-0.317,0.922-0.67,1.374-1.013
	c0.372-0.279,0.755-0.537,1.114-0.833c1.62-1.328,3.102-2.812,4.432-4.43c0.294-0.359,0.55-0.74,0.829-1.108
	c0.343-0.457,0.696-0.905,1.015-1.383c0.305-0.45,0.565-0.92,0.839-1.383c0.254-0.425,0.52-0.837,0.753-1.275
	c0.254-0.478,0.472-0.966,0.7-1.451c0.214-0.453,0.438-0.897,0.632-1.36c0.197-0.476,0.355-0.962,0.529-1.444
	c0.176-0.493,0.366-0.979,0.518-1.484c0.146-0.488,0.256-0.983,0.381-1.478c0.129-0.51,0.271-1.013,0.374-1.533
	c0.114-0.575,0.182-1.157,0.264-1.738c0.063-0.444,0.148-0.88,0.195-1.33c0.104-1.047,0.156-2.095,0.156-3.146v-224.27
	c0-17.517-14.201-31.718-31.718-31.718s-31.718,14.201-31.718,31.718v147.709L54.146,9.289C41.761-3.095,21.677-3.095,9.29,9.289
	c-12.387,12.387-12.387,32.469,0,44.856L403.707,448.56z"/>
</svg>