<svg width="6027" height="3166" viewBox="0 0 6027 3166" fill="none" xmlns="http://www.w3.org/2000/svg">
<path d="M4918.5 2161.29L3544.11 2661.53C3381.11 2720.85 3288.13 2876.53 3336.43 3009.23C3384.73 3141.92 3556.02 3201.41 3719.01 3142.08L5805.91 2382.51C5815.63 2378.97 5825.2 2375.02 5834.6 2370.71C5838.86 2368.75 5842.86 2366.54 5847 2364.47C5851.99 2361.97 5856.98 2359.58 5861.86 2356.86C5866.51 2354.26 5870.91 2351.41 5875.39 2348.66C5879.56 2346.1 5883.75 2343.67 5887.82 2340.96C5892.13 2338.07 5896.18 2334.95 5900.33 2331.91C5904.32 2328.99 5908.34 2326.18 5912.18 2323.11C5916 2320.08 5919.55 2316.82 5923.18 2313.67C5927.06 2310.32 5930.97 2307.05 5934.7 2303.51C5938.13 2300.25 5941.25 2296.83 5944.5 2293.47C5948.05 2289.8 5951.67 2286.25 5955.04 2282.43C5958.59 2278.42 5961.77 2274.23 5965.03 2270.11C5967.72 2266.73 5970.57 2263.48 5973.1 2260.02C5984.51 2244.48 5994.21 2228.21 6002.12 2211.45C6003.87 2207.74 6005.2 2203.99 6006.78 2200.25C6008.71 2195.63 6010.76 2191.04 6012.41 2186.34C6014.01 2181.9 6015.13 2177.46 6016.41 2173.02C6017.6 2168.94 6018.94 2164.92 6019.9 2160.81C6020.94 2156.33 6021.63 2151.89 6022.41 2147.45C6023.15 2143.29 6024.01 2139.17 6024.54 2135.01C6025.06 2130.73 6025.19 2126.52 6025.48 2122.28C6025.76 2117.94 6026.19 2113.62 6026.21 2109.28C6026.22 2105.09 6025.88 2100.97 6025.68 2096.79C6025.47 2092.49 6025.41 2088.2 6024.93 2083.91C6024.41 2079.17 6023.44 2074.53 6022.6 2069.85C6021.96 2066.28 6021.55 2062.69 6020.75 2059.12C6018.83 2050.83 6016.42 2042.72 6013.52 2034.76L5395.16 335.825C5346.86 203.127 5175.57 143.643 5012.58 202.968C4849.59 262.292 4756.6 417.965 4804.9 550.663L5212.17 1669.62L454.723 17.4986C305.337 -34.3709 118.459 33.6473 37.3453 169.412C-43.7601 305.199 11.6103 457.328 161.023 509.213L4918.5 2161.29Z" fill="white"/>
</svg>
